<svg enable-background="new 0 0 500 250" height="80.5" viewBox="0 0 414.29999 80.5"
  width="414.3" xmlns="http://www.w3.org/2000/svg"><path
  d="M115.8
  21.8c-1.1.9-1.7 2.2-1.7 3.7s.7 2.8 2.1 3.7c1.4.9 4.6 2 9.7 3.2 5 1.2 9 3.1 11.7
  5.6 2.8 2.5 4.2 6.1 4.2 10.9 0 4.8-1.8 8.6-5.4 11.6-3.6 3-8.3 4.4-14.1 4.4-8.4
  0-16-3.1-22.7-9.4l7.1-8.7c5.7 5 11 7.5 15.9 7.5 2.2 0 3.9-.5 5.1-1.4 1.2-.9
  1.9-2.2 1.9-3.8
  0-1.6-.7-2.9-2-3.8-1.3-.9-3.9-1.9-7.8-2.9-6.2-1.5-10.7-3.4-13.6-5.7-2.9-2.4-4.3-6.1-4.3-11.1s1.8-8.9
  5.4-11.7c3.6-2.7 8.1-4.1 13.6-4.1 3.5 0 7.1.6 10.6 1.8 3.5 1.2 6.6 2.9 9.3
  5.2l-6 8.7c-4.6-3.5-9.4-5.2-14.3-5.2-2 .1-3.5.6-4.7 1.5zm51.3
  42.6h-11.4v-56.5h11.4v29l12.7-13.5h14.4l-15.6 16.6 16.2
  24.4h-13.5l-10.4-15.7-3.7 3.9v11.8zm75.1.6h-19.6c-6.2
  0-11.3-1.9-15.4-5.7-4.1-3.8-6.1-9-6.1-15.4s2.1-11.6 6.2-15.4c4.1-3.8 9-5.7
  14.6-5.7s10.4 1.7 14.3 5.1c3.9 3.4 5.9 8.1 5.9 14v6.1h-29.8c.4 2.2 1.5 4.1 3.5
  5.5 2 1.4 4.2 2.1 6.7 2.1h19.6l.1 9.4zm-14.3-30.8c-1.6-1.3-3.5-2-5.7-2-2.3
  0-4.3.7-6.2 2.1-1.9 1.4-3 3.2-3.3 5.6h17.9c-.2-2.5-1.1-4.4-2.7-5.7zm43.9
  30.8c-4.8 0-9.2-2.1-13-6.2-3.8-4.1-5.7-9.2-5.7-15.3 0-6.1 1.9-11.1 5.6-14.9
  3.7-3.9 8-5.8 13-5.8s9 1.7 12.2 5.2v-20.1h11.4v57.1h-23.5zm-7.2-21c0 3.3 1 6 3
  8.1 2 2.1 4.3 3.2 6.9 3.2 2.6 0 4.9-1.1 6.7-3.2 1.9-2.1 2.8-4.8
  2.8-8.1s-.9-6.1-2.8-8.3c-1.9-2.2-4.1-3.3-6.8-3.3s-5 1.1-6.9 3.3c-1.9 2.2-2.9
  5-2.9 8.3zm57.7
  20.4h-11.4v-40.6h11.4v40.6zm28.8-43.3v2.7h9.9v8.2h-9.9v32.3h-11.5v-32.3h-4.8v-8.2h4.8v-2.5c0-4.5
  1.4-8 4.1-10.6 2.7-2.6 6.1-3.9 10.1-3.9h11v9.4h-9.7c-1.2 0-2.1.4-2.9
  1.3-.8.8-1.1 2-1.1 3.6zm31 59.4h-12.2v-10.5h12c1.1 0 2-.5 2.7-1.6.8-1 1.1-2.1
  1.1-3.3 0-1.2-5.3-15.1-15.8-41.7h12.2l10 25.5 10-25.5h12.2l-19 48.2c-1.1 2.8-2.9
  5-5.2 6.5-2.5 1.6-5.1 2.4-8
  2.4zm-71.3-72.8h11.4v11.5h-11.4z" fill="#333"/><g clip-rule="evenodd" fill-rule="evenodd"><path d="M39 13.7l-16.1 9.4-2.4-23.1z" fill="#1d8763"/><path d="M22.8 49.6l16.7 9.5-18.8 13.7z" fill="#c67529"/><path d="M62.2 48.5l-.1-24.5 21.6 12.2z" fill="#ab2b2e"/><path d="M20.6 45.8l-20.6-9.3 20.4-8.9z" fill="#3a9241"/><path d="M59.6 22.6l-15.3-8.8 18-13.6z" fill="#057090"/><path d="M62.5 72.3l-18.2-13.5 16.3-9.4z" fill="#cb5728"/></g>
  <g clip-rule="evenodd" fill-rule="evenodd"><path d="M62.3.2l-3.1 25.5 24.5 10.5z" fill="#00a3d7"/><path d="M62.5 72.3l21.2-36.1-23.3 10.9z" fill="#e45c62"/><path d="M20.5 0l21.2 15.7 20.6-15.5z" fill="#00aacd"/><path d="M20.5 0l2.8 26.3-23.3 10.2z" fill="#5bbc89"/><path d="M0 36.5l23 10.5-2.3 25.8z" fill="#fcce29"/><path d="M20.7 72.8l21.4-15.8 20.4 15.3z" fill="#e87a25"/></g>
  <g clip-rule="evenodd" fill-rule="evenodd"><path d="M82.6 36.7l1.1-.5-21.6-9.2v1" fill="#672429"/><path d="M22.8 49.6l.9.5-2 22-1 .7z" fill="#7c4823"/><path d="M60.6 49.4l-1.1.6 1.9 21.4 1.1.9z" fill="#803720"/><path d="M20.5 0l18.5 13.7-.9.5-17.5-13.2z" fill="#134c36"/><path d="M62.1 1.5l.2-1.3-18 13.6.8.5" fill="#1a3b42"/><path d="M20.4 27.6l-20.4 8.9 1.1.6 19.3-8.3z" fill="#2a5129"/></g><path clip-rule="evenodd"
    d="M41.3
    39.9l-6.9-7.2s-4.8-2.1-4.5-2c.2.2 2.3 3.9 2.3 3.9l9.1 7.5 10.1-9.6 2.5-4.3-4.4
    3.2-8.2 8.5z" fill-rule="evenodd" fill="#80c786"/></svg>
